<?xml version="1.0" standalone="no"?>
<svg version="1.1" id="Layer_1" xmlns="http://www.w3.org/2000/svg" xmlns:xlink="http://www.w3.org/1999/xlink" x="0px" y="0px" width="595.28px" height="595.28px" viewBox="0 0 595.28 595.28" enable-background="new 0 0 595.28 595.28" xml:space="preserve">
<path id="color_x5F_2" fill="#fd4a36" d="M339.588,417.667c5.911,13.477,12.05,27.089,20.047,39.487
	c-0.017,0.021-0.037,0.041-0.049,0.063c-1.541,2.846-5.581,3.397-9.467,2.877c-1.604-0.375-3.236-0.782-4.641-1.142
	c-0.346-0.128-0.677-0.262-0.991-0.401c0.331-0.253,0.496-0.57,0.288-0.894c-13.377-20.771-27.503-41.442-37.147-64.295
	c-4.719-11.183-7.76-22.177-1.83-33.521c0.724-1.383,1.538-2.746,2.413-4.089c1.114-1.546,2.18-3.018,3.185-4.404
	c1.781-2.235,3.743-4.381,5.849-6.4c0.34-0.032,0.674-0.137,0.92-0.326c2.74-2.103,5.404-4.383,7.874-6.846
	c2.947-2.031,6.011-3.801,9.101-5.261c0.476,0.497,1.986,0.503,2.59-0.133c0.617-0.651,1.298-1.132,2.02-1.488l10.881,0.616
	c1.896,0.603,3.722,1.256,5.322,1.652c1.319,0.327,2.655,0.473,3.998,0.498c-8.175,3.483-16.906,5.751-24.667,10.278
	c-10.741,6.266-16.276,17.264-13.915,29.506c1.423,7.375,5.537,14.549,8.452,21.427
	C333.045,402.483,336.268,410.096,339.588,417.667z M372.135,332.099c-1.938,0.284-3.916,0.68-5.907,1.003
	c-8.845,4.63-18.913,6.674-27.712,11.531c-13.621,7.519-18.013,21.146-11.854,35.313c11.049,25.414,20.453,52.449,35.567,75.837
	c0.056,0.014,0.106,0.032,0.151,0.056c4.89,2.695,15.812,2.234,19.084-2.875c-0.262-0.118-0.465-0.321-0.542-0.636
	c-3.673-15.074-9.173-29.612-13.113-44.61c-1.628-6.199-3.241-13.174-5.95-19.474c-0.168-0.085-0.208-0.214-0.151-0.364
	c-2.201-5.02-5.12-9.588-9.337-12.955c-0.737-0.589-0.217-1.435,0.447-1.796c1.148-0.626,2.32-1.134,3.51-1.551
	c0.389-0.388,0.986-0.717,1.517-0.714c0.289,0.001,0.578,0.002,0.867,0.003c9.956-2.481,20.968,0.478,30.89-2.518
	c13.729-4.144,21.835-15.168,22.076-29.379c0.004-0.217,0.083-0.406,0.205-0.57C398.711,335.841,385.541,330.131,372.135,332.099z
	 M381.644,455.209c0.919-0.456,1.485-0.77,1.485-0.77s-0.037-0.132-0.104-0.366C382.608,454.481,382.143,454.857,381.644,455.209z
	 M451.738,193.022c1.486-0.325,2.837-1.042,3.982-2.009c-2.022,0.963-4.408,1.898-6.297,2.059
	C450.067,193.218,450.828,193.221,451.738,193.022z M446.766,187.287c-0.095,0.632-0.127,1.266-0.089,1.875
	C446.672,188.549,446.706,187.913,446.766,187.287z M485.26,277.977c-6.395-2.05-12.287-5.752-17.329-10.119
	c-0.159-0.138-0.252-0.281-0.294-0.423c-7.51,0.511-18.961,1.885-24.418-3.233c-0.488-0.458-0.896-0.944-1.241-1.45
	c-0.392-0.33-0.634-0.788-0.748-1.35c-2.929-6.78,3.984-16.459,7.346-21.592c0.753-1.149,3.455-0.655,2.438,0.898
	c-0.198,0.303-0.425,0.646-0.672,1.021c0.313-0.114,1.126-0.458,1.56-1.062c-1.823-3.44-3.053-8.376,0.717-10.297
	c5.475-2.791,9.251,2.347,12.875,5.696c3.148,2.91,6.176,6.856,9.969,8.928c1.744,0.952,3.561,1.768,5.404,2.519
	c-2.604-10.018-5.151-20.041-6.56-30.313c-0.135-0.986,2.78-1.635,2.898-0.776c1.092,7.967,2.872,15.783,4.83,23.564
	c8.275-0.137,16.333-1.232,22.795-6.71c-2.429-6.064-4.266-12.334-6.557-18.45c-1.657-4.423-3.521-9.45-6.183-13.729
	c-0.695-1.029-1.396-2.024-2.095-2.96c-0.661-0.823-1.361-1.602-2.115-2.313c-7.123-6.709-18.005-7.27-25.534-13.121
	c0.079,0.36,0.164,0.715,0.258,1.056c0.117,0.427-0.145,0.797-0.551,1.052c-1.185,4.916-5.891,8.391-10.859,9.255
	c-1.949,0.339-4.699,0.566-6.264-0.96c-2.021-1.971-1.398-4.846-0.545-7.235c0.045-0.126,0.169-0.238,0.336-0.337
	c0.249-0.743,0.438-1.434,0.559-2.067l-0.103,0.032c-0.065,0.278-0.404,0.608-1.087,0.829c-6.662,2.16-13.764,3.266-20.217,6.03
	c-4.118,1.765-7.32,4.2-9.709,7.304c-1.343,2.468-2.748,5.298-3.891,7.671c-0.268,0.864-0.507,1.752-0.707,2.677
	c-0.063,0.29-0.436,0.534-0.892,0.699c-0.063,0.135-0.12,0.259-0.177,0.38c3.438,2.455,6.968,4.816,9.871,7.998
	c1.38,1.512,2.641,3.11,3.773,4.771c0.11-2.669,0.225-5.339,0.238-8.011c0.006-0.95,2.901-1.414,2.898-0.776
	c-0.023,4.276-0.293,8.545-0.4,12.818v0.617c4.85,9.71,5.258,20.915-1.565,30.639c1.706,3.83,3.051,7.833,4.248,11.569
	c2.562,7.993,5.208,16.026,7.558,24.081c0.584,2.001,1.28,4.355,1.731,6.777c0.021,0.002,0.041,0,0.062,0.003
	c18.395,2.779,34.415-1.093,50.732-9.397c-0.3-4.039-1.892-7.83-2.449-11.847C485.178,278.208,485.205,278.089,485.26,277.977z
	 M429.545,285.439c0.047,0.142,0.219,0.552,0.472,1.139c-0.326-0.994-0.652-1.987-0.978-2.98
	C429.313,284.622,429.497,285.295,429.545,285.439z M470.877,266.847c2.177,1.837,4.586,3.652,7.16,5.252l-7.036-5.389
	C470.964,266.758,470.922,266.803,470.877,266.847z M460.101,265.593c-3.112-0.21-6.519-0.495-9.573-0.871
	C453.582,265.465,456.841,265.642,460.101,265.593z M471.736,245.44l1.143,1.333l2.032,0.581
	C473.764,246.802,472.691,246.169,471.736,245.44z M418.212,191.773c-0.283,0.122-0.651,0.492-1.077,1.043
	c0.889-0.591,1.814-1.136,2.771-1.643C419.091,191.442,418.498,191.65,418.212,191.773z M175.811,244.457
	c-0.078,0.012-0.154,0.021-0.23,0.026c0.563,0.545,1.224,1.348,1.571,2.317C177.02,246.065,176.484,245.219,175.811,244.457z
	 M213.953,304.011c-0.008-0.003-0.015-0.006-0.021-0.01c-0.043-0.022-0.052-0.057-0.044-0.096c-1.093-1.806-2.111-3.642-3.061-5.473
	c-5.421-10.461-9.524-21.801-11.222-33.494c-0.163-1.125,2.748-1.808,2.898-0.776c0.955,6.588,2.669,13.133,4.97,19.447
	c6.431-5.703,12.481-12.336,17.576-19.208c-0.009-0.005-0.021-0.007-0.03-0.012c-7.684-4.55-13.12-11.904-20.41-16.961
	c-7.938-5.507-16.768-4.095-25.852-3.893c1.049,1.092,1.923,2.464,1.302,3.891c-0.582,1.336-2.302,2.027-3.747,2.351
	c-2.041,0.962-6.447,0.242-8.184-0.337c-0.549-0.183-1.158-0.546-1.765-0.989c-1.267-0.656-2.412-1.513-3.357-2.569
	c-11.07,3.833-20.757,10.098-26.411,20.721c-5.221,9.809-7.85,20.773-11.128,31.323c-0.043,0.138-0.123,0.263-0.226,0.376
	c9.439,1.444,18.927,1.533,28.376,0.222c-1.517-6.917-2.296-13.998-1.75-21.022c0.068-0.879,2.932-1.205,2.898-0.776
	c-0.874,11.25,1.563,22.907,5.233,33.5c3.545,10.233,8.294,20.956,16.456,28.367c0.019,0.017,0.024,0.037,0.034,0.056
	c0.012,0.013,0.027,0.023,0.037,0.038c8.674-5.297,18.484-8.847,28.076-12.071c8.392-2.82,17.475-4.943,26.414-4.799
	C223.78,317.765,218.271,311.129,213.953,304.011z M123.629,299.689c0,0,0.192-0.012,0.513-0.028
	c-0.161-0.023-0.323-0.042-0.484-0.066L123.629,299.689z"></path>
<path id="color_x5F_1" d="M185.404,211.378c0.247,2.365-1.75,3.961-3.51,5.181c-1.084,0.752-3.5-0.045-1.881-1.168
	c1.133-0.786,3.157-2.167,2.313-3.82c-0.787-1.544-2.717-2.432-4.178-3.181c-1.361-0.697,1.233-2.107,2.258-1.582
	C182.089,207.67,185.172,209.156,185.404,211.378z M171.527,210.897c0.428-0.199,1.207-0.877,0.709-1.404
	c-0.566-0.598-0.706-1.22-0.707-2.022c-0.001-0.707-0.709-0.916-1.315-0.862c-0.528,0.047-1.61,0.429-1.61,1.121
	c0.001,1.144,0.15,2.138,0.969,3.002C170.067,211.254,170.926,211.177,171.527,210.897z M180.342,202.963
	c0.059,1.063,1.059,1.915,1.759,2.615c0.146,0.146,0.569,0.099,0.736,0.084c0.384-0.033,0.767-0.125,1.128-0.255
	c0.207-0.074,1.229-0.449,0.868-0.811c-0.66-0.661-1.538-1.408-1.593-2.41C183.213,201.685,180.299,202.172,180.342,202.963z
	 M163.893,206.007c0.746-1.523,1.334-3.716,2.91-4.589c0.466-0.258,0.804-0.941,0.217-1.271c-0.647-0.362-1.47-0.094-2.063,0.234
	c-2.049,1.135-2.82,3.481-3.791,5.461C160.504,207.195,163.422,206.967,163.893,206.007z M176.622,196.876c0.837,0,1.675,0,2.512,0
	c0.609,0,1.512-0.46,1.608-1.128c0.106-0.745-0.797-0.874-1.319-0.874c-0.837,0-1.675,0-2.512,0c-0.609,0-1.512,0.46-1.608,1.128
	C175.196,196.748,176.1,196.876,176.622,196.876z M272.422,225.383c5.185-10.163-13.578-18.135-3.878-27.882
	c0.73-0.734-2.104-0.458-2.656,0.097c-10.08,10.13,8.853,18.05,3.659,28.231C269.232,226.446,272.01,226.19,272.422,225.383z
	 M274.572,208.242c-0.314,0.617,2.463,0.36,2.875-0.446c5.185-10.163-13.578-18.135-3.878-27.882
	c0.73-0.734-2.104-0.458-2.656,0.097C260.833,190.141,279.766,198.061,274.572,208.242z M280.209,322.534
	c5.185-10.163-13.578-18.135-3.878-27.881c0.73-0.734-2.104-0.458-2.656,0.097c-10.08,10.129,8.853,18.05,3.659,28.231
	C277.02,323.597,279.797,323.34,280.209,322.534z M285.233,304.946c5.186-10.163-13.577-18.135-3.878-27.881
	c0.73-0.734-2.104-0.458-2.656,0.097c-10.079,10.129,8.854,18.05,3.659,28.231C282.044,306.009,284.822,305.753,285.233,304.946z
	 M544.578,371.301c0,5.167,0,10.333,0,15.5c0,0.188-0.18,0.353-0.447,0.489c-0.113,0.476-1.24,1.173-1.94,1.168
	c-18.094-0.124-36.188-0.199-54.282-0.25c1.462,16.501,2.98,33.011,5.326,49.414c1.225,2.548,2.456,5.093,3.681,7.642
	c9.354,19.465,18.697,38.936,28.028,58.412c0.361,0.754-1.103,1.36-1.599,1.371c-5.208,0.115-11.467,1.204-16.567,0.063
	c-0.081-0.018-0.145-0.042-0.209-0.065c-0.332,0.014-0.662-0.038-0.941-0.178c-0.006-0.003-0.012-0.006-0.019-0.009
	c-0.391-0.196-0.452-0.452-0.327-0.706c-0.143-0.42-1.88-3.268-2.273-3.967c-1.848-3.275-3.715-6.538-5.585-9.8
	c-1.757-3.065-3.515-6.13-5.274-9.195c-0.24,0.081-0.467,0.133-0.634,0.134c-11.252,0.028-22.497,0.473-33.75,0.5
	c-1.128,0.003-0.804-0.429-0.174-0.789c-0.026-0.077-0.044-0.16-0.042-0.256c0.111-6.816,1.536-13.443,4.059-19.76
	c-2.754-1.55-4.914-3.783-4.978-7.171c-0.124-6.629-0.037-13.275,0.2-19.901c0.115-3.209-0.668-9.637,1.006-12.891
	c-5.954-10.641-11.8-21.34-17.417-32.155c-1.937,23.589-5.191,47.04-7.61,70.58c-0.03,0.296-0.392,0.556-0.847,0.732
	c0.089,0.218-0.03,0.497-0.511,0.822c-0.386,0.261-0.793,0.49-1.198,0.722c0.017,0.019,0.038,0.034,0.051,0.055
	c4.89,7.869,2.918,16.127-4.51,21.43c-0.013,0.009-0.032,0.018-0.047,0.026c-0.39,0.417-1.061,0.797-1.614,0.797
	c-15.075,0-30.15,0-45.226,0c-1.008,0-1.017-0.49-0.624-0.966c-0.246-0.222-0.367-0.553-0.236-1.004
	c0.353-1.22,0.782-2.338,1.254-3.403c-5.105,5.24-11.006,9.281-14.886,10.014c-5.03,0.95-13.217,0.875-14.518-4.139
	c-5.007,3.253-16.659,7.326-20.138-0.214c-2.98-6.463,0.9-10.758,4.73-15.167c-0.83,0.706-1.633,1.342-2.326,1.883
	c-5.623,4.384-12.527,10.05-19.837,11.271c-2.692,0.449-5.452,0.302-8.214,0.05c-10.014,2.42-17.666-7.153-23.042-14.633
	c-0.093-0.031-0.174-0.075-0.229-0.144c-8.596-10.802-20.885-17.708-29.907-28.071c-1.353-1.553-2.654-3.141-3.93-4.746
	c-0.879,1.393-1.898,2.495-3.018,3.342c0.067,0.129,0.11,0.278,0.112,0.456c0.091,9.678,9.222,58.75-13.872,48.921
	c-9.964-4.24-12.098-21.259-13.357-30.44c-0.887-6.451-1.477-13.053-1.102-19.568c0.208-3.627,0.352-8.431,2.879-11.345
	c0.169-0.195,0.402-0.333,0.663-0.42c0.015-1.097,0.279-2.242,0.883-3.444c2.604-5.188,6.055-9.277,7.049-15.211
	c0.031-0.187,0.151-0.354,0.32-0.499c-0.61-0.933-1.22-1.866-1.836-2.796c-3.552-5.354-7.311-10.424-11.246-15.343
	c-32.759,0-65.517,0-98.276,0c-0.916,4.987-2.818,9.395-5.936,13.408c-0.052,0.067-0.135,0.129-0.231,0.188
	c20.365,0,40.73,0,61.096,0c1.376,0,0.91,0.929,0.081,1.484c0,32.17,0,64.339,0,96.508c1.816,0.057,0.084,1.885-1.142,1.885
	c-39.362,0-78.725,0-118.087,0c-0.584,0-0.831-0.169-0.865-0.404c-0.031-0.044-0.054-0.094-0.054-0.153c0-32.663,0-65.325,0-97.987
	c0-0.303,0.251-0.559,0.603-0.752c0.39-0.324,0.919-0.581,1.377-0.581c12.483,0,24.967,0,37.45,0
	c2.998-4.024,5.976-8.294,6.963-13.296c0.021-0.107,0.108-0.208,0.233-0.3c-4.539,0-9.078,0-13.618,0
	c-0.831,0-0.933-0.285-0.701-0.612c-0.559-0.041-1.024-0.309-1.024-0.891c0-4.746,0-9.492,0-14.238c0-0.58,0.656-0.991,1.347-1.112
	c0.424-0.338,1.07-0.638,1.523-0.638c1.579,0,3.159,0,4.738,0c-1.622-0.303-3.132-0.78-4.427-1.516
	c-2.158-1.227-2.203-4.13-0.136-5.557c3.19-2.203,8.297-1.744,11.97-2.33c15.883-2.533,27.719-17.028,31.607-31.92
	c1.627-6.229,2.65-12.473,2.651-18.928c0-3.241-0.604-6.375-0.704-9.584c-0.008-0.26,0.141-0.487,0.369-0.669
	c-2.384-0.175-4.768-0.445-7.147-0.791c-0.161-0.023-0.323-0.042-0.484-0.066c-0.194-0.029-0.389-0.049-0.583-0.079
	c-0.622-0.097-0.518-0.349-0.141-0.603c-0.327-0.113-0.515-0.35-0.394-0.739c3.673-11.821,6.37-25.017,13.438-35.409
	c6.337-9.316,15.445-14.863,25.836-18.53c-0.359-2.208-0.45-5.113-1.625-6.942c-1.868-2.911-4.711-2.247-7.611-1.347
	c-3.643,1.13-6.203-0.328-7.013-4.326c-0.165-0.815-0.229-1.581-0.212-2.298c-6.408-4.481-10.937-10.634-12.186-17.422
	c-0.233-0.981-0.357-1.988-0.337-3.047c-0.149-4.189,0.964-8.552,3.657-12.86c1.876-3.001,4.17-5.688,6.759-8.042
	c2.005-2.119,4.335-3.738,6.749-4.965c5.098-2.987,10.842-4.872,16.761-5.443c-0.082-0.697-0.085-1.374-0.036-2.039
	c-0.063-0.432-0.123-0.89-0.175-1.4c-0.161-1.606,0.534-2.899,1.666-3.886c0.137-0.299,0.274-0.599,0.423-0.901
	c0.273-0.557,1.809-0.83,2.518-0.739c0.1-0.035,0.199-0.068,0.3-0.1c0.492-0.339,1.698-0.813,2.069-0.823
	c4.653-0.128,9.979,1.398,11.795,6.221c1.087,2.884,1.055,6.058-0.018,8.883c-0.999,3.254-2.917,6.177-4.753,7.345
	c-0.081,0.052-0.188,0.1-0.277,0.151c0.688-0.314,1.624-0.414,2.024,0.003c4.003,4.167,7.254,9.348,10.042,14.377
	c2.188,3.946,5.494,9.146,5.191,13.87c-0.319,4.983-3.892,8.55-7.815,11.189c-5.234,3.521-10.251,6.528-12.069,12.795
	c0.009,0.008,0.018,0.015,0.026,0.023c0.416-0.284,0.959-0.516,1.35-0.521c8.605-0.107,18.312-2.061,26.035,2.832
	c8.103,5.132,13.921,13.199,22.148,18.124c0.328-0.032,0.644-0.018,0.887,0.05c1.383-3.034,2.809-6.048,4.332-9.015
	c1.959-3.814,3.017-9.608,7.119-11.737c-0.32-0.029-0.551-0.134-0.57-0.342c-1.251-12.944,11.1-12.798,20.416-12.809
	c9.243-0.011,18.463-0.614,27.698-0.828c0.778-0.314,1.791-0.231,1.995,0.532c1.526,5.703,1.649,12.205,1.956,18.063
	c0.316,6.046,1.741,16.522-2.532,21.646c-1.514,1.815-3.371,1.956-5.589,2.196c-4.206,0.455-8.44,0.877-12.675,0.9
	c-3.5,0.02-14.336,0.455-13.862-5.292c-2.354,0.35-5.009,0.593-7.51,0.293c-5.42,10.226-5.04,22.786-11.156,32.737
	c-4.612,7.503-11.73,8.97-19.051,6.649c4.039,6.02,8.997,11.427,15.368,14.787c0.088,0.046,0.152,0.097,0.202,0.149
	c7.825,0.863,15.896,4.102,23.12,7.016c3.958,1.597,8.423,3.363,12.638,5.563c0.393-0.217,0.849-0.381,1.169-0.381
	c8.375,0,16.75,0,25.125,0c1.182,0,0.847,0.533,0.188,0.954c0.401,0.135,0.694,0.435,0.694,0.931c0,0.964,0,1.929,0,2.894
	c2.691-1.473,5.358-2.598,6.444-3.146c0.258-0.13,0.678-0.197,1.092-0.204c-0.457-0.221-0.604-0.651,0.119-1.222
	c6.465-5.102,10.811-13.248,14.061-20.663c3.275-7.473,6.133-15.581,6.294-23.827c0.001-0.076,0.021-0.149,0.048-0.22
	c-4.169-11.836-8.263-23.702-13.041-35.296c-0.203-0.492,0.521-0.969,1.304-1.153c0.728-0.549,2.185-0.591,2.47,0.269
	c-0.193-0.658-0.883-0.53,0.271-0.39c0.589,0.071,1.18,0.136,1.771,0.192c1.793,0.171,3.588,0.319,5.384,0.456
	c4.327,0.329,8.657,0.621,12.987,0.9c0.018-0.043,0.037-0.087,0.071-0.136c3.254-4.685,8.353-7.911,13.133-11.073
	c-13.622-3.685-13.89-25.519-13.875-37.817c-0.276-0.043-0.506-0.151-0.625-0.355c-8.098-13.861-1.238-33.382,16.47-32.577
	c0.135,0.006,0.247,0.021,0.346,0.039c3.263-2.343,7.186-4.021,11.344-5.131c0.12-0.032,0.239-0.068,0.36-0.099
	c0.796-0.206,1.6-0.385,2.408-0.551c1.041-0.318,2.601-0.673,5.081-0.792c3.532-0.384,7.031-0.438,10.243-0.216
	c5.378,0.372,11.441,1.69,15.199,5.942c3.559,4.026,4.011,8.834,3.523,14.011c-0.492,5.241-2.486,14.465,1.739,18.762
	c1.552,1.578,3.271,2.949,5.042,4.262c1.701-7.21,5.446-11.818,10.309-15.052c0.889-0.591,1.814-1.136,2.771-1.643
	c7.021-3.723,15.729-5.404,23.861-8.041c1.007-0.327,1.504-0.034,1.409,0.369c-0.065,0.278-0.404,0.608-1.087,0.829
	c-6.662,2.16-13.764,3.266-20.217,6.03c-4.118,1.765-7.32,4.2-9.709,7.304c-1.704,2.213-2.992,4.769-3.891,7.671
	c-0.268,0.864-0.507,1.752-0.707,2.677c-0.063,0.29-0.436,0.534-0.892,0.699c-0.163,0.059-0.334,0.107-0.509,0.143
	c0.11,0.08,0.222,0.158,0.332,0.237c3.438,2.455,6.968,4.816,9.871,7.998c1.38,1.512,2.641,3.11,3.773,4.771
	c0.11-2.669,0.225-5.339,0.238-8.011c0.006-0.95,2.901-1.414,2.898-0.776c-0.023,4.276-0.293,8.545-0.4,12.818
	c-0.005,0.197-0.008,0.394-0.013,0.591c0.005,0.008,0.009,0.017,0.013,0.025c4.85,9.71,5.258,20.915-1.565,30.639
	c1.706,3.83,3.051,7.833,4.248,11.569c2.562,7.993,5.208,16.026,7.558,24.081c0.584,2.001,1.28,4.355,1.731,6.777
	c0.021,0.002,0.041,0,0.062,0.003c18.395,2.779,34.415-1.093,50.732-9.397c-0.3-4.039-1.892-7.83-2.449-11.847
	c-0.018-0.126,0.01-0.245,0.064-0.358c-6.395-2.05-12.287-5.752-17.329-10.119c-0.159-0.138-0.252-0.281-0.294-0.423
	c-7.51,0.511-18.961,1.885-24.418-3.233c-0.488-0.458-0.896-0.944-1.241-1.45c-0.298-0.435-0.548-0.885-0.748-1.35
	c-2.929-6.78,3.984-16.459,7.346-21.592c0.753-1.149,3.455-0.655,2.438,0.898c-0.198,0.303-0.425,0.646-0.672,1.021
	c-3.636,5.53-11.79,18.347-2.966,21.988c1.018,0.42,2.074,0.744,3.152,1.006c3.055,0.742,6.313,0.919,9.573,0.871
	c3.383-0.051,6.764-0.336,9.913-0.462c1.323-0.053,1.51,0.915,0.987,1.579c-0.037,0.048-0.079,0.093-0.124,0.137
	c2.177,1.837,4.586,3.652,7.16,5.252c4.824,3,10.207,5.244,15.626,5.458c4.398,0.175,9.608-0.748,11.357-5.332
	c1.031-2.704,1.375-5.646,1.399-8.527c0.055-6.263-0.875-12.502-2.107-18.63c-0.389-1.934-1.83-5.327-1.637-7.525
	c-6.018,3.448-13.005,4.439-20.091,4.62c0.569,2.229,1.147,4.456,1.727,6.683c0.378,0.14,0.755,0.283,1.132,0.42
	c3.092,1.127,6.211,2.174,9.307,3.29c0.938,0.338,2.776,0.663,3.394,1.552c0.302,0.434-2.357,1.555-2.898,0.776
	c-0.584-0.841-3.495-1.355-4.404-1.673c-2.589-0.903-5.186-1.791-7.758-2.744c-0.22-0.082-0.455-0.163-0.683-0.244
	c-0.421,0.017-0.771-0.076-0.896-0.32c-2.134-0.745-4.468-1.528-6.594-2.551c-1.147-0.552-2.22-1.184-3.175-1.913
	c-0.234-0.179-0.479-0.349-0.697-0.541c-4.832-4.264-9.231-9.016-14.217-13.119c-1.02-0.839-1.824-0.898-2.42-0.524
	c-0.135,0.085-0.264,0.185-0.377,0.311c-0.783,0.878-1.035,2.664-0.738,4.061c0.48,2.269,1.31,4.367,2.725,6.224
	c0.521,0.684-2.254,1.639-2.719,1.028c-0.457-0.599-0.942-1.362-1.393-2.213c-1.823-3.44-3.053-8.376,0.717-10.297
	c5.475-2.791,9.251,2.347,12.875,5.696c3.148,2.91,6.176,6.856,9.969,8.928c1.744,0.952,3.561,1.768,5.404,2.519
	c-2.604-10.018-5.151-20.041-6.56-30.313c-0.135-0.986,2.78-1.635,2.898-0.776c1.092,7.967,2.872,15.783,4.83,23.564
	c8.275-0.137,16.333-1.232,22.795-6.71c-2.429-6.064-4.266-12.334-6.557-18.45c-1.657-4.423-3.521-9.45-6.183-13.729
	c-0.646-1.04-1.346-2.029-2.095-2.96c-0.661-0.823-1.361-1.602-2.115-2.313c-7.123-6.709-18.005-7.27-25.534-13.121
	c0.079,0.36,0.164,0.715,0.258,1.056c0.117,0.427-0.145,0.797-0.551,1.052c-1.185,4.916-5.891,8.391-10.859,9.255
	c-1.949,0.339-4.699,0.566-6.264-0.96c-2.021-1.971-1.398-4.846-0.545-7.235c0.045-0.126,0.169-0.238,0.336-0.337
	c0.249-0.743,0.438-1.434,0.559-2.067c1.95-10.12-11.555-6.908-17.935-11.296c-9.96-6.85-1.388-23.558-0.96-32.817
	c0.013-0.274,0.262-0.501,0.605-0.676c-0.238-0.098-0.547-0.222-0.905-0.369c-7.651,0.163-14.751-5.987-12.895-15.25
	c1.767-8.818,15.084-13.347,20.911-6.285c5.702-7.33,22.918-8.376,24.329,2.001c2.56-1.435,5.596-2.008,8.373-0.652
	c3.737,1.826,5.431,5.532,5.606,9.518c0.082,0.038,0.173,0.081,0.26,0.121c9.211,0.268,17.35,12.38,10.21,19.155
	c4.429,0.28,7.465,3.639,6.653,8.662c-0.713,4.417-3.913,7.585-8.049,8.067c-2.566,8.59-11.547,11.135-19.35,13.349
	c-0.021,0.006-0.041,0.007-0.062,0.013c-0.104,0.69-0.149,1.395-0.144,2.1c0.246,0.011,0.451,0.07,0.568,0.199
	c7.641,8.408,21.775,7.322,28.895,16.331c8.472,10.719,11.268,24.136,16.223,36.58c0.455,0.231,0.711,0.668,0.432,1.187
	c-0.018,0.157-0.159,0.314-0.368,0.458c-0.833,0.78-1.698,1.48-2.587,2.124c0.565,0.181,0.688,0.486,0.564,0.798
	c-0.301,1.318,0.798,3.843,1.066,5.128c0.688,3.288,1.332,6.592,1.786,9.921c0.862,6.314,1.879,13.786-0.456,19.907
	c-2.354,6.174-9.174,8.413-15.428,7.792c-1.459-0.145-2.897-0.396-4.317-0.722c0.766,4.146,2.315,8.068,2.297,12.356
	c-0.003,0.728-1.665,1.258-2.47,0.943c-2.005,1.004-4.009,1.944-6.015,2.815c0.067,0.058,0.109,0.129,0.109,0.221
	c0.075,25.362,2.301,50.625,4.469,75.874c18.46-0.053,36.919-0.129,55.379-0.254c0.647-0.004,1.004,0.204,1.142,0.484
	C543.912,371.125,544.578,371.126,544.578,371.301z M479.606,146.788c0.397-0.288,0.746-0.6,1.058-0.929
	c-0.645,0.557-1.118,0.915-1.118,0.915S479.581,146.782,479.606,146.788z M455.721,191.014c2.202-1.86,3.634-4.665,3.718-7.522
	c0-0.006,0.004-0.012,0.005-0.018c-1.083-4.909-0.41-10.389,4.268-13.062c0.935-0.534,2.104-0.539,3.1-0.89
	c2.477-0.874,4.029-3.116,4.484-5.556c0.482-2.586,0.407-6.953-2.318-7.072c-1.377,0.706-4.57,2.354-7.273,0.545
	c-2.174-0.208-3.929-1.394-4.531-4.094c-0.677-3.032-0.433-6.548,0.729-9.509c-4.258,0.673-8.684-0.474-9.528-4.65
	c-5.532,3.68-15.421,4.985-14.409-2.947c-1.285,0.866-3.126,1.979-4.688,2.447c-0.08,1.534-0.381,3.316-0.78,5.249
	c2.422-1.002,5.673-0.769,7.375,0.982c0.479,0.493-2.192,1.549-2.727,0.999c-1.049-1.078-3.146-1.957-4.231-0.597
	c-0.123,0.155-0.436,0.296-0.803,0.405c-0.243,1.098-0.502,2.229-0.76,3.382c2.332-1.093,5.386-0.581,6.722,1.889
	c0.385,0.712-2.402,1.694-2.898,0.776c-0.328-0.607-0.938-1.159-1.567-1.439c-0.958-0.426-1.022-0.396-1.611,0.416
	c-0.246,0.339-0.692,0.541-1.145,0.653c-1.9,9.068-2.826,18.644,6.681,21.181c7.758,2.07,17.784,1.76,14.003,12.692
	c-0.053,0.154-0.197,0.291-0.395,0.409c-0.165,0.519-0.292,1.058-0.373,1.604c-0.095,0.632-0.127,1.266-0.089,1.875
	c0.12,1.883,0.931,3.498,2.747,3.91c0.644,0.146,1.404,0.149,2.314-0.05C453.225,192.697,454.575,191.981,455.721,191.014z
	 M479.333,296.097c-13.457,5.405-27.126,7.653-42.158,5.618c0.341,3.04,0.132,6.058-1.346,8.509
	c-2.239,3.717-6.515,5.422-10.704,5.837c-4.41,0.437-8.723,0.149-12.928-0.678c1.146,7.911,5.969,14.627,7.428,22.479
	c0.193,1.04-1.469,1.714-2.365,1.376c-0.881-0.1-1.761-0.219-2.641-0.357c-0.116,6.015-1.609,11.711-4.417,16.613
	c-0.166,5.197-0.616,10.374-1.021,15.556c9.736,0.021,19.474,0.028,29.211,0.032c1.809-16.178,2.248-32.511,5.623-48.482
	c0.014-0.067,0.061-0.131,0.12-0.193c-0.04-1.328,2.843-1.727,2.941-0.166c1.056,16.708,6.498,32.792,11.751,48.562
	c0.031,0.095,0.043,0.187,0.045,0.275c8.287-0.008,16.574-0.026,24.861-0.048C481.593,346.093,479.418,321.143,479.333,296.097z
	 M441.232,370.839c-0.01,0.089-0.056,0.169-0.119,0.245c4.884,0.001,9.768,0.002,14.651-0.001
	c-4.28-12.852-8.579-25.862-10.611-39.271C443.263,344.744,442.71,357.844,441.232,370.839z M381.465,452.964
	c-0.262-0.118-0.465-0.321-0.542-0.636c-3.673-15.074-9.173-29.612-13.113-44.61c-1.628-6.199-3.241-13.174-5.95-19.474
	c-0.168-0.085-0.208-0.214-0.151-0.364c-2.201-5.02-5.12-9.588-9.337-12.955c-0.737-0.589-0.217-1.435,0.447-1.796
	c1.148-0.626,2.32-1.134,3.51-1.551c0.389-0.388,0.986-0.717,1.517-0.714c0.289,0.001,0.578,0.002,0.867,0.003
	c9.956-2.481,20.968,0.478,30.89-2.518c13.729-4.144,21.835-15.168,22.076-29.379c0.004-0.217,0.083-0.406,0.205-0.57
	c-13.172-2.558-26.342-8.268-39.748-6.3c-1.938,0.284-3.916,0.68-5.907,1.003c-8.845,4.63-18.913,6.674-27.712,11.531
	c-13.621,7.519-18.013,21.146-11.854,35.313c11.049,25.414,20.453,52.449,35.567,75.837c0.056,0.014,0.106,0.032,0.151,0.056
	C367.271,458.534,378.192,458.074,381.465,452.964z M326.781,447.74c5.299-1.089,8.826,1.458,11.488,5.176
	c-13.326-20.386-27.556-41.188-35.633-64.163c-0.002-0.006-0.004-0.012-0.006-0.018c-10.992,0-21.984,0-32.978,0
	c-3.219,4.622-6.469,9.226-9.375,14.065c4.747,7.146,9.752,14.146,14.986,20.847c4.651,5.955,9.746,11.223,15.532,16.081
	c5.408,4.542,10.93,8.963,15.463,14.416C314.18,456.559,319.403,449.256,326.781,447.74z M271.144,386.581
	c10.252,0,20.504,0,30.755,0c-1.478-4.502-2.605-9.109-2.64-13.878c-0.001-0.081,0.005-0.162,0.006-0.243
	c-6.433,0-12.865,0-19.298,0C277.355,377.389,274.295,382.015,271.144,386.581z M345.479,458.953
	c1.388,0.514,2.997,0.922,4.641,1.142c3.886,0.52,7.926-0.031,9.467-2.877c0.012-0.022,0.032-0.042,0.049-0.063
	c-7.997-12.398-14.136-26.01-20.047-39.487c-3.32-7.571-6.543-15.184-9.769-22.795c-2.915-6.878-7.029-14.052-8.452-21.427
	c-2.361-12.242,3.174-23.24,13.915-29.506c7.761-4.526,16.492-6.794,24.667-10.278c-1.343-0.024-2.679-0.17-3.998-0.498
	c-1.601-0.396-3.426-1.049-5.322-1.652c-3.728-1.186-7.732-2.168-10.881-0.616c-0.722,0.356-1.402,0.837-2.02,1.488
	c-0.604,0.636-2.114,0.63-2.59,0.133c-3.09,1.46-6.153,3.229-9.101,5.261c-2.47,2.462-5.134,4.743-7.874,6.846
	c-0.246,0.189-0.58,0.293-0.92,0.326c-2.105,2.02-4.067,4.165-5.849,6.4c-1.144,1.434-2.208,2.904-3.185,4.404
	c-0.875,1.343-1.689,2.706-2.413,4.089c-5.93,11.344-2.889,22.338,1.83,33.521c9.645,22.853,23.771,43.524,37.147,64.295
	c0.208,0.324,0.043,0.64-0.288,0.894C344.802,458.691,345.133,458.824,345.479,458.953z M330.029,333.388
	c1.608-0.902,3.252-1.724,4.919-2.472c1.749-1.997,3.308-4.204,4.911-6.294c1.307-1.703,2.662-4.305,4.445-5.564
	c0.287-0.203,0.939-0.496,1.529-0.586c-0.937-0.033-1.873-0.056-2.81-0.095c-1.38-0.057-3.36,0.142-4.942-0.154
	C336.586,323.889,333.691,328.912,330.029,333.388z M357.474,318.798c-3.646-0.085-7.292-0.181-10.937-0.303
	c0.096,0.032,0.182,0.078,0.251,0.144c0.003,0.003,0.007,0.006,0.01,0.01c0.094,0.074,0.118,0.166,0.074,0.277
	c-0.029,0.088-0.078,0.165-0.124,0.245c-0.105,0.184-0.344,0.333-0.639,0.451c-1.332,1.275-3.065,4.155-4.229,5.667
	c-0.918,1.193-1.819,2.427-2.757,3.629c2.626-1.064,5.559-1.004,8.671-0.403c2.979,0.576,5.806,1.722,8.743,2.45
	c2.904,0.72,5.79,0.587,8.681,0.197c0.057-0.03,0.114-0.058,0.171-0.088c0.457-0.246,0.922-0.256,1.295-0.127
	c0.779-0.125,1.558-0.257,2.338-0.394c16.408-2.885,31.371,4.157,47.326,6.37c-1.838-7.376-6.295-13.867-7.159-21.524
	c-0.027-0.243,0.044-0.464,0.177-0.658c-11.629-2.977-22.375-9.893-31.943-16.87c-0.752,0.548-1.6,1.045-2.528,1.483
	c0.056,0.056,0.104,0.118,0.135,0.194c2.36,5.773,3.92,11.814,6.281,17.587c0.21,0.514-0.586,1.013-1.403,1.178
	c-0.178,0.46-0.701,0.877-1.438,0.873C371.47,319.146,364.469,318.961,357.474,318.798z M358.872,296.951
	c-1.821-0.473-4.022-1.226-6.02-2.292c4.175,6.561,17.149,7.09,22.735,2.635c0.204-0.163,0.687-0.298,1.178-0.366
	c0.049-0.071,0.111-0.147,0.2-0.23c1.767-1.659,2.221-4.692,2.415-6.995c0.127-1.503,0.457-3.69-0.342-5.083
	c-0.026-0.046-0.04-0.094-0.045-0.141c-4.99-4.819-7.381-11.432-13.391-15.114c1.275,3.498,2.564,6.99,3.975,10.437
	c0.104,0.255-0.045,0.506-0.316,0.715c0.674,0.612-1.716,1.647-2.492,1.265c-4.957-2.442-10.162-4.711-15.607-5.806
	c0.17,1.162,0.776,2.182,1.659,3.087c1.397,0.489,2.732,1.253,3.916,2.008c0.43,0.274,0.5,0.606,0.362,0.917
	c2.754,1.401,5.799,2.458,7.584,3.436c1.177,0.644-1.5,1.827-2.311,1.383c-2.777-1.52-7.971-3.119-11.24-5.752
	c-0.63-0.274-1.279-0.463-1.1,0.154c0.528,1.817,1.842,3.165,3.39,4.201c3.163,2.119,6.757,3.387,10.302,4.709
	c1.744,0.651-0.337,2.533-1.648,2.044c-3.09-1.153-7.392-2.446-10.623-4.637c-0.402,0.078-0.786,0.068-1.012-0.082
	c-0.091-0.061-0.186-0.137-0.28-0.221c0.354,4.543,6.435,7.105,10.486,8.158C362.288,295.807,359.79,297.189,358.872,296.951z
	 M387.188,370.978c6.386,0.023,12.771,0.053,19.157,0.068c0.293-3.72,0.594-7.438,0.796-11.163
	c-2.666,3.186-6.02,5.871-10.068,7.844C393.811,369.317,390.543,370.341,387.188,370.978z M371.328,230.801
	c0.281,3.561,2.378,7.076,6.419,5.279c3.1-1.378,5.477-4.145,5.41-7.641c-1.269-1.555-2.259-3.325-2.862-5.376
	c-0.033-0.111,0.055-0.231,0.214-0.349c-1.334-2.728-2.61-5.476-3.354-8.445c-0.063-0.252,0.15-0.494,0.482-0.691
	c-0.855-0.333-0.135-1.742,1.114-1.945c0.873-0.142,1.601-0.439,2.194-0.846c0.667-0.961,1.397-2.109,1.967-3.243
	c0.52-3.361-2.032-7.313-6.574-5.932c-0.947,0.288-1.506-0.112-1.567-0.624c-5.437,0.53-8.71-3.401-11.003-7.999
	c-1.953-3.918-5.18-16.09-11.256-11.902c-0.574,0.396-1.646,0.372-2.125,0.064c-0.299,0.125-0.625,0.2-0.873,0.247
	c-3.194,0.602-4.418,4.72-4.985,7.898c0.212,0.104,0.351,0.273,0.349,0.533c-0.008,1.076-0.051,2.28-0.1,3.565
	c0.14-0.014,0.28-0.027,0.413-0.021c0.519,0.023,1.034,0.203,1.523,0.366c0.22,0.073,0.438,0.15,0.661,0.212
	c0.053,0.015,0.084,0.024,0.105,0.032c0.01,0.001,0.014,0.001,0.027,0.002c0.064,0.01,0.13,0.016,0.195,0.016
	c0.611,0.027,1.182,0.571,0.877,1.193c-0.337,0.687-1.189,0.911-1.889,0.88c-0.519-0.023-1.034-0.203-1.523-0.366
	c-0.156-0.052-0.314-0.102-0.473-0.152c-0.035,0.977-0.067,1.983-0.086,3.013c0.268-0.142,0.563-0.226,0.824-0.226
	c0.135,0,0.27,0.002,0.404-0.006c0.027-0.001,0.107-0.018,0.172-0.03c0.076-0.06,0.15-0.121,0.219-0.189
	c0.505-0.47,1.517-0.564,2.081-0.164c0.633,0.449,0.306,1.122-0.144,1.542c-0.814,0.758-1.886,1.029-2.973,1.031
	c-0.187,0-0.398-0.026-0.6-0.082c0.006,9.234,1.479,19.354,10.982,21.027c3.008,0.53,6.306-0.656,9.225,0.315
	c3.483,1.159,4.941,4.988,5.979,8.342C371.082,230.229,371.3,230.444,371.328,230.801z M346.073,198.303
	c0.046-0.015,0.052-0.018,0.022-0.009C346.095,198.295,346.088,198.298,346.073,198.303z M353.077,172.738
	c-0.453,0.176-1.188,0.273-1.708,0.23l1.177,0.138C352.546,173.106,352.743,172.968,353.077,172.738z M338.693,253.755
	c6.756,0.436,13.549,1.045,20.318,1.181c0.737,0.015,0.969,0.313,0.898,0.679c0.313,0.049,0.565,0.185,0.668,0.436
	c1.529,3.737,2.916,7.528,4.298,11.322c0.585-0.258,1.298-0.388,1.684-0.197c7.094,3.504,9.574,10.658,14.89,15.919
	c0.355-0.086,0.677-0.121,0.855-0.06c8.394,2.893,16.955,5.274,25.592,7.338c-4.902-8.865-9.134-19.127-9.406-29.278
	c-0.035-1.322,2.897-1.755,2.939-0.211c0.273,10.239,4.91,20.846,9.905,29.612c0.14,0.245,0.159,0.481,0.099,0.698
	c3.89,0.89,7.791,1.729,11.699,2.518c0.83,0.167-1.689,1.273-2.377,1.135c-12.961-2.618-25.863-5.71-38.42-9.879
	c0.389,1.741,0.037,4.062-0.196,5.535c-0.345,2.174-0.896,4.443-2.347,6.137c6.981,5.117,14.223,10.193,22.224,13.588
	c6.829,2.897,23.51,9.106,29.626,2.354c3.819-4.215,2.776-10.699,1.479-15.736c-0.891-3.46-1.989-6.867-3.105-10.269
	c-0.326-0.994-0.652-1.987-0.978-2.98c-0.598-1.828-1.186-3.658-1.734-5.499c-3.876-13.007-7.893-29.656-20.885-36.502
	c-6.188-3.261-14.93-5.708-20.724-10.604c-2.452,7.716-15.341,11.375-17.106,1.791c-0.109-0.073-0.19-0.171-0.229-0.299
	c-0.303-1-0.634-2.266-1.071-3.538c-1.979,4.536-7.048,7.986-10.779,10.616c-0.976,0.688-1.995,1.364-3.032,2.042
	c0.311,0.109-0.308,0.485-1.026,0.771l-0.905,0.729c0,0-0.081-0.047-0.196-0.115c-4.565,2.969-9.229,6.12-12.236,10.45
	C339.032,253.558,338.88,253.664,338.693,253.755z M338.471,315.563c0.042,0.101,0.08,0.204,0.122,0.305
	c0.001,0.003,0.003,0.007,0.004,0.01c0.011,0.026,0.01,0.052,0.016,0.078c0.19,0.073,0.355,0.182,0.467,0.339
	c-0.271-0.386-0.708-0.317,0.128-0.245c0.568,0.049,1.138,0.09,1.708,0.122c1.542,0.085,3.086,0.15,4.63,0.205
	c4.313,0.153,8.629,0.266,12.944,0.364c6.534,0.148,13.071,0.323,19.608,0.367c-2.174-5.501-3.701-11.219-5.935-16.7
	c-7.995,2.493-19.128,1.342-22.646-5.737c-0.19-0.385,0.75-0.892,1.62-1.051c-2.898-1.995-4.846-4.807-3.503-8.577
	c0.101-0.283,0.322-0.498,0.595-0.657c-0.277-0.423-0.528-0.862-0.722-1.334c-0.751-1.836-0.592-3.886,1.492-4.371
	c-0.633-1.076-0.935-2.291-0.736-3.683c0.12-0.85,1.718-1.043,2.338-0.96c5.354,0.719,10.513,2.648,15.43,4.913
	c-2.89-7.272-5.331-14.714-8.287-21.961c-8.463-0.181-16.959-0.958-25.401-1.521c-1.445-0.096-11.57-0.039-16.537-1.088
	C323.969,274.53,330.207,295.449,338.471,315.563z M309.1,332.241c0.235,0.049,0.448,0.145,0.605,0.308
	c3.027,3.133,4.944,6.906,6.689,10.843c1.98-1.834,4.061-3.565,6.224-5.174c6.242-5.95,11.301-13.104,13.019-21.717
	c-2.924-7.105-5.586-14.315-8.172-21.556c-1.119,6.648-3.611,13.193-6.44,19.165C317.96,320.579,314.318,327.215,309.1,332.241z
	 M297.132,339.64c-0.14,0.537-0.756,0.882-1.387,0.961c-1.905,1.449-3.172,3.063-2.7,4.691c2.19-0.758,4.422-1.275,6.761-1.486
	c2.269-0.204,3.875,0.039,5.089-2.156c-0.121-0.97,1.707-1.877,2.581-1.135c2.815,2.392,3.425,5.502,3.06,8.905
	c1.268-1.455,2.602-2.865,3.982-4.233c-0.37-0.076-0.687-0.266-0.838-0.61c-1.702-3.875-3.575-7.538-6.514-10.622
	c-0.168,0.139-0.331,0.282-0.502,0.417c-0.249,0.196-0.589,0.304-0.934,0.336c0.316,0.147,0.33,0.397-0.367,0.75
	C303.995,336.15,300.178,337.692,297.132,339.64z M271.953,334.579c4.078,2.322,7.795,5.111,10.399,8.645
	c6.026,8.179,2.54,19.477-1.64,27.808c4.504,0,9.006,0,13.51,0c0-0.008-0.003-0.014-0.003-0.022c0-7.747,0-15.494,0-23.241
	c0-1.37,2.943-1.768,2.943-0.194c0,7.747,0,15.494,0,23.241c0,0.076-0.013,0.147-0.029,0.216c0.732,0,1.465,0,2.197,0
	c0.295-3.604,1.58-7.189,3.31-10.48c-0.491-0.056-0.876-0.299-0.87-0.798c0.04-3.611,1.591-10.339-2.19-12.57
	c-1.303-0.769,1.321-2.096,2.271-1.535c3.627,2.141,3.258,7.139,2.971,11.216c0.351-0.534,0.707-1.058,1.069-1.565
	c0.817-1.145,1.68-2.271,2.569-3.382c-0.641-0.014-1.17-0.327-1.053-1.015c0.473-2.768,0.52-5.481-1.18-7.635
	c-0.908,0.839-2.019,1.395-3.409,1.641c-3.587,0.635-6.869,0.599-10.348,2.013c-0.543,0.221-1.614,0.493-1.998-0.118
	c-1.567-2.498,0.669-5.013,3.756-7.12c-0.002-0.028-0.01-0.052-0.01-0.081c0-1.465,0-2.931,0-4.397c0-0.242,0.095-0.451,0.246-0.627
	C286.961,334.579,279.457,334.579,271.953,334.579z M125.242,298.301c9.439,1.444,18.927,1.533,28.376,0.222
	c-1.517-6.917-2.296-13.998-1.75-21.022c0.068-0.879,2.932-1.205,2.898-0.776c-0.874,11.25,1.563,22.907,5.233,33.5
	c3.545,10.233,8.294,20.956,16.456,28.367c0.019,0.017,0.024,0.037,0.034,0.056c0.012,0.013,0.027,0.023,0.037,0.038
	c8.674-5.297,18.484-8.847,28.076-12.071c8.392-2.82,17.475-4.943,26.414-4.799c-7.237-4.051-12.746-10.687-17.064-17.805
	c-0.008-0.003-0.015-0.006-0.021-0.01c-0.043-0.022-0.052-0.057-0.044-0.096c-1.093-1.806-2.111-3.642-3.061-5.473
	c-5.421-10.461-9.524-21.801-11.222-33.494c-0.163-1.125,2.748-1.808,2.898-0.776c0.955,6.588,2.669,13.133,4.97,19.447
	c6.431-5.703,12.481-12.336,17.576-19.208c-0.009-0.005-0.021-0.007-0.03-0.012c-7.684-4.55-13.12-11.904-20.41-16.961
	c-7.938-5.507-16.768-4.095-25.852-3.893c1.049,1.092,1.923,2.464,1.302,3.891c-0.582,1.336-2.302,2.027-3.747,2.351
	c-0.265,0.059-0.522,0.11-0.76,0.146c-3.027,0.458-6.395-0.024-9.188-1.472c-1.267-0.656-2.412-1.513-3.357-2.569
	c-11.07,3.833-20.757,10.098-26.411,20.721c-5.221,9.809-7.85,20.773-11.128,31.323
	C125.425,298.063,125.345,298.188,125.242,298.301z M151.097,331.287c-3.866,7.994-9.15,15.454-14.676,22.373
	c-4.302,5.387-9.7,13.021-16.311,15.814c-1.857,0.785-3.918,1.222-6.055,1.483c28.405,0,56.81,0,85.214,0
	c-0.083-0.089-0.163-0.178-0.246-0.267c-9.17-9.809-18.131-19.75-25.329-31.136c-8.156-7.424-13.17-18.252-16.593-28.553
	c-0.433-1.303-0.851-2.618-1.249-3.943c-0.46,4.204-1.074,8.389-1.817,12.557C153.324,323.601,152.874,327.612,151.097,331.287z
	 M241.867,241.13c0.012,0.12-0.025,0.235-0.099,0.342c1.474-0.364,3.476-0.713,5.319-0.667c-0.156-4.26,5.248-6.476,9.292-6.022
	c0.87-0.456,2.259-0.305,2.259,0.777c0,8.096,0,16.192,0,24.288c0,0.167-0.045,0.32-0.122,0.457
	c-0.052,0.421-0.389,0.857-1.08,1.065c-3.419,1.032-7.281,0.791-9.957-1.814c-2.294-2.233-3.188-5.326-2.903-8.417
	c-0.665,0.144-1.318,0.229-1.941,0.264c-0.47,3.601-0.588,8.2,2.151,10.963c3.293,3.322,8.195,3.132,12.529,2.465
	c0.446-0.204,0.978-0.276,1.396-0.192c0.457-0.004,0.624,0.147,0.595,0.358c0.089,0.141,0.129,0.316,0.085,0.54
	c-1.117,5.69,15.041,3.841,18.058,3.59c2.376-0.198,5.572,0.005,7.841-0.787c1.879-0.657,2.308-4.644,2.521-6.247
	c0.898-6.768,0.507-13.727-0.115-20.502c-0.357-3.887-0.49-8.11-1.49-11.91c-6.758,0.153-13.511,0.56-20.269,0.722
	c-3.712,0.089-7.437,0.207-11.147,0.044C247.158,230.113,241.031,232.484,241.867,241.13z M251.825,244.85
	c-0.054,0.552-0.193,1.067-0.396,1.55c1.411-0.277,2.841-0.504,4.267-0.634c0-3.001,0-6.003,0-9.005
	c-3.031-0.702-6.529,1.295-5.468,4.733C251.322,242.094,251.994,243.133,251.825,244.85z M247.631,250.074
	c-0.165,1.087-0.155,2.163,0.013,3.186c2.544-0.299,5.105-0.413,7.646-0.755c0.155-0.021,0.287-0.028,0.406-0.028
	c0-1.908,0-3.817,0-5.725c-1.572,0.046-3.195,0.269-4.775,0.579C250.149,248.493,248.969,249.407,247.631,250.074z M247.969,254.652
	c1.061,3.266,3.858,5.596,7.727,4.981c0-1.983,0-3.966,0-5.95c-0.245,0.145-0.533,0.258-0.836,0.298
	C252.57,254.29,250.264,254.413,247.969,254.652z M217.249,286.969c3.389-6.865,6.349-13.933,9.466-20.926
	c-5.404,7.092-11.717,13.892-18.445,19.643c1.252,3.227,2.64,6.394,4.176,9.458c1.32,2.635,2.758,5.306,4.342,7.911
	c5.131,2.688,11.514,4.871,15.914-0.26c2.89-3.368,4.57-7.61,5.885-11.801c2.487-7.93,3.539-16.731,7.518-24.108
	c0.141-0.261,0.557-0.455,1.028-0.58c-1.576-0.381-3.037-1.042-4.251-2.107c-3.693-3.242-3.705-8.323-3.067-12.839
	c0.042-0.295,0.403-0.55,0.855-0.724c0.097-0.652,1.004-1.468,1.911-1.423c1.735,0.086,7.616-2.121,6.306-5.104
	c-1.084-2.468-8.152-0.691-9.339,0.922c-1.91,2.6-2.898,6.45-4.342,9.342c-5.41,10.832-9.812,22.128-15.171,32.984
	C219.436,288.568,216.5,288.487,217.249,286.969z M148.81,223.45c0.72-0.366,1.513-0.599,2.347-0.681
	C150.254,222.624,149.473,222.918,148.81,223.45z M162.354,235.548c1.861,1.697,1.962,5.378,2.354,7.869
	c0.658,0.066,0.954,0.586,0.777,1.098c2.22,2.648,5.82,4.224,9.268,4.119c2.014-0.062,2.576-0.843,2.397-1.835
	c-0.132-0.734-0.667-1.58-1.341-2.343c-0.078,0.012-0.154,0.021-0.23,0.026c-0.666,0.049-1.231-0.152-1.105-0.711
	c0.045-0.201,0.111-0.385,0.162-0.582c0.013-0.046,0.027-0.092,0.039-0.138c1.262-4.715,4.143-8.229,8.178-11.022
	c4.287-2.968,10.463-5.786,11.523-11.482c1.059-5.69-3.174-12.274-5.976-16.886c-2.583-4.252-5.324-8.615-8.786-12.22
	c-0.332-0.346-0.107-0.724,0.331-1.009c-3.917,1.972-13.886,3.26-18.647,5.443c-1.997,1.398-3.464,3.357-4.017,6.325
	c2.589,7.474,2.997,15.957,1.26,23.667c-0.206,0.917-2.321,1.368-2.817,0.762c-0.189-0.003-0.343-0.04-0.428-0.127
	c-1.445-1.484-4.593-4.608-6.179-1.509c-0.511,0.999-0.848,2.103-0.927,3.227c0.463,0.322,0.356,0.702,0.002,1.016
	c0.021,0.262,0.051,0.523,0.104,0.784c0.294,1.457,1.091,4.515,2.701,5.118c1.351,0.505,3.354-0.699,4.66-1.098
	C158.32,233.227,160.315,233.688,162.354,235.548z M104.897,369.121c0.125-0.005,0.239-0.003,0.344,0.006
	c1.307-0.083,2.613-0.166,3.918-0.275c2.879-0.242,7.414,0.063,9.997-1.372c6.615-3.676,11.822-10.801,16.32-16.705
	c4.867-6.388,9.94-13.178,13.152-20.588c1.852-4.272,2.295-9.147,3.026-13.712c0.863-5.391,1.544-10.787,1.865-16.239
	c0.015-0.246,0.12-0.457,0.28-0.634c-6.656,0.979-13.333,1.315-20.004,0.993c0.024,0.075,0.04,0.157,0.043,0.247
	c0.278,8.885,0.879,17.094-1.29,25.92c-1.232,5.015-2.647,10.317-5.191,14.858c-2.951,5.267-7.761,9.564-12.288,13.458
	c-3.959,3.406-8.634,6.53-13.826,7.62c-2.378,0.499-14.472,0.79-14.316,4.058C87.094,370.27,102.255,369.239,104.897,369.121z
	 M53.966,403.935c0,32.032,0,64.064,0,96.097c38.116,0,76.233,0,114.351,0c0-32.032,0-64.065,0-96.097
	C130.199,403.935,92.082,403.935,53.966,403.935z M113.507,388.447c-4.414,0-8.828,0-13.242,0
	c-1.063,5.076-4.152,9.404-7.207,13.487c-0.028,0.039-0.066,0.075-0.107,0.11c4.863,0,9.727,0,14.589,0
	c0.019-0.037,0.035-0.073,0.068-0.115c3.08-3.966,4.877-8.296,5.755-13.22C113.379,388.617,113.433,388.53,113.507,388.447z
	 M213.223,386.869c-3.979-4.89-8.154-9.63-12.498-14.334c-38.482,0-76.965,0-115.447,0c0,4.719,0,9.438,0,14.157
	c0,0.062-0.013,0.12-0.026,0.177C127.908,386.869,170.565,386.869,213.223,386.869z M241.183,439.671
	c-5.699,2.083-12.833-0.732-17.698-5.831c-1.457-1.528-2.748-3.148-3.498-4.894c-1.213,2.786-1.23,6.547-1.313,9.249
	c-0.184,6.046,0.219,12.118,1.095,18.103c0.858,5.86,1.992,11.769,3.983,17.363c1.298,3.647,3.314,9.777,7.29,11.469
	c11.837,5.037,12.101-10.888,11.974-18.734C242.873,457.458,241.359,448.591,241.183,439.671z M245.387,432.704
	c-5.697-7.422-10.761-15.28-15.869-23.131c-0.779,2.75-1.987,5.292-3.564,7.771c-1.514,2.38-4.293,5.642-3.79,8.688
	c0.714,4.322,4.956,8.227,8.579,10.352c5.863,3.438,11.414,3.132,14.529-3.507C245.3,432.815,245.34,432.758,245.387,432.704z
	 M282.522,465.368c0.278,0.05,0.522,0.17,0.678,0.388c0.462,0.647,0.92,1.302,1.378,1.957c4.035-7.017,10.422-11.362,18.173-13.445
	c-4.757-5.468-10.479-9.884-15.957-14.605c-5.737-4.945-10.825-10.35-15.348-16.436c-7.376-9.924-14.632-20.067-21.093-30.617
	c-5.946-9.711-11.605-19.594-17.485-29.345c-3.203-5.31-6.606-13.179-11.597-17.291c-0.303-0.089-0.555-0.271-0.673-0.557
	c-0.01-0.022-0.021-0.044-0.028-0.068c-0.028-0.09-0.048-0.187-0.048-0.296c0-0.279,0-0.559,0-0.837
	c0-0.727,1.006-1.151,1.591-1.192c0.261-0.018,0.525,0.021,0.753,0.118c0.44-0.121,0.899-0.134,1.238,0.043
	c5.966,3.118,12.384,5.399,18.806,7.378c3.587,1.105,7.458,2.63,11.213,3.046c0.652,0.072,0.916,0.356,0.932,0.695
	c0.305,0.245,0.385,0.629-0.022,1.135c-3.526,4.376-5.405,10.015-7.464,15.176c-0.713,1.787-1.457,4.961-3.154,6.464
	c2.51,4.254,5.026,8.503,7.596,12.721c2.185,3.586,4.444,7.156,6.761,10.698c2.767-4.391,5.794-8.61,8.773-12.862
	c0.06-0.286,0.248-0.567,0.536-0.768c2.607-3.739,5.151-7.519,7.39-11.499c4.645-8.258,11.415-22.069,4.225-30.887
	c-6.093-7.473-16.374-11.69-25.124-15.064c-6.444-2.484-13.5-5.366-20.444-6.309c-0.41,0.286-0.964,0.503-1.392,0.472
	c-10.16-0.737-20.435,1.896-29.938,5.272c-8.604,3.057-17.353,6.225-25.129,11.085c-0.068,0.043-0.147,0.079-0.231,0.111
	c7.609,11.703,17.054,21.88,26.555,32.066c9.102,9.759,17.301,19.741,24.635,30.899c8.219,12.503,15.798,26.034,26.244,36.874
	C263.584,448.931,274.379,455.777,282.522,465.368z M244.102,371.988c0.883-2.186,1.725-4.389,2.639-6.563
	c1.429-3.4,2.924-6.841,5.089-9.842c-3.567-0.597-7.206-1.958-10.579-3.022c-5.176-1.632-10.301-3.428-15.237-5.667
	c3.743,4.153,6.522,10.237,9.14,14.578c2.626,4.354,5.207,8.735,7.789,13.115c0.1-0.165,0.188-0.312,0.229-0.404
	C243.491,373.456,243.805,372.726,244.102,371.988z M294.304,478.152c1.366,0.839,2.677,1.397,3.942,1.735
	c1.474,0.043,2.943,0.16,4.41,0.295c5.788-0.784,10.62-5.997,15.383-10.42c3.784-3.515,7.654-6.937,11.461-10.429
	c1.77-1.622,3.536-3.525,5.668-4.675c0.27-0.145,0.525-0.256,0.774-0.353c-1.846-2.941-4.304-5.568-7.487-5.427
	c-3.377,0.15-6.383,2.493-9.263,4.039c-4.904,2.633-9.976,4.291-15.341,2.534c-7.611,1.901-13.439,6.235-17.129,13.249
	c-0.14,0.265-0.552,0.48-1.018,0.609C288.114,472.686,290.695,475.938,294.304,478.152z M337.133,462.617
	c0.559-1.047,1.276-2.399,1.048-3.644c-0.22-1.195-0.538-0.969-0.212-0.945c-0.051-0.104-0.102-0.209-0.154-0.315
	c-0.77-0.154-1.305-0.623-0.588-1.166c-0.012-0.023-0.024-0.045-0.036-0.068c-0.602-0.204-1.336,0.188-2.556,1.243
	c-3.26,2.819-6.351,5.831-9.576,8.69c-5.239,4.643-10.28,10.811-16.564,14.218c0.344,0.013,0.687,0.027,1.03,0.031
	c4.532,0.05,8.512-2.23,12.201-4.657C327.081,472.483,334.01,468.481,337.133,462.617z M360.674,458.849
	c-4.242,3.511-12.557,3.121-17.85,1.148c-1.186,5.981-7.406,9.507-9.986,14.836c-1.852,3.825-1.753,10.351,3.455,11.532
	c4.186,0.949,8.394-0.622,11.865-2.913c0.411-0.271,1.051-0.328,1.567-0.233c-0.014-0.829,0.12-1.758,0.444-2.808
	C352.526,472.776,358.76,466.568,360.674,458.849z M380.051,473.691c3.725-4.892,10.33-14.871,3.085-19.674
	c-0.013-0.008-0.019-0.017-0.03-0.025c-0.027,0.027-0.053,0.055-0.08,0.082c-0.417,0.407-0.883,0.784-1.382,1.136
	c-2.386,1.682-5.623,2.743-8.98,3.21c-0.14,0.02-0.28,0.038-0.42,0.055c-0.299,0.038-0.589,0.061-0.875,0.075
	c-2.665,0.249-5.339,0.151-7.662-0.319c-1.343,5.888-5.423,10.986-8.147,16.274c-1.298,2.518-3.479,6.127-2.864,9.104
	c0.795,3.855,5.707,3.706,8.802,3.413C369.259,486.287,375.535,479.622,380.051,473.691z M386.36,469.59
	c3.722-3.011,8.231-5.199,13.057-7.414c-0.599-0.228-0.575-0.597-0.264-0.937c-0.175-0.119-0.271-0.299-0.228-0.556
	c4.04-23.997,5.128-48.312,7.502-72.497c-13.789,0.034-27.578,0.086-41.367,0.153c2.161,5.31,3.637,10.979,5.018,16.211
	c4.166,15.789,9.876,31.132,13.743,47.001c0.05,0.204,0.028,0.392-0.036,0.565c0.307-0.003,0.541,0.03,0.623,0.099
	c0.361-0.05,0.713-0.01,0.97,0.16C391.216,456.246,390.222,462.965,386.36,469.59z M427.65,463.018
	c-7.503,2.994-17.145,2.11-24.93,0.108c-0.002,0-0.003,0.001-0.004,0.002c-9.747,4.46-18.458,8.067-21.781,19.082
	c14.555,0,29.109,0,43.664,0C430.677,477.195,431.672,469.851,427.65,463.018z M438.212,388.152
	c-9.634,0.005-19.269,0.007-28.903,0.029c-2.354,24.083-3.45,48.291-7.473,72.184c-0.018,0.101-0.064,0.194-0.124,0.283
	c8.195,2.516,20.475,4.392,27.897-0.634c0.095-0.064,0.205-0.113,0.32-0.155c2.436-23.701,5.721-47.311,7.652-71.063
	C437.602,388.548,437.861,388.323,438.212,388.152z M462.674,458.945c0.342,0.249,0.701,0.464,1.058,0.686
	c0.454,0.026,0.826,0.187,0.892,0.524c3.689,2.002,7.983,2.648,12.201,2.241c1.26-0.122,2.509-0.86,3.775-1.338
	c-0.451-0.788-0.904-1.575-1.355-2.363c-6.511-11.383-13.053-22.76-19.484-34.199c-0.268,3.059,0.036,6.593-0.031,8.674
	c-0.189,5.779-0.282,11.566-0.233,17.348C459.525,454.206,459.348,456.521,462.674,458.945z M491.505,480.068
	c-3.491-6.082-6.983-12.163-10.468-18.249c-1.529,0.525-2.788,1.44-4.526,1.608c-3.895,0.376-8.16,0.39-11.872-1.016
	c-0.226-0.085-0.449-0.175-0.674-0.266c-2.208,5.866-3.401,12.046-3.504,18.324c0,0.024-0.01,0.047-0.013,0.071
	C470.802,480.483,481.15,480.121,491.505,480.068z M494.451,446.942c-1.211-2.52-2.428-5.038-3.64-7.558
	c-0.212-0.049-0.358-0.146-0.382-0.307c-0.033-0.227-0.062-0.454-0.094-0.681c-5.031-10.463-10.06-20.927-15.112-31.379
	c-2.166-4.48-4.332-8.961-6.519-13.432c-0.827-1.691-1.518-3.803-2.657-5.318c-0.026-0.035-0.038-0.068-0.058-0.103
	c-7.552-0.01-15.104-0.019-22.654-0.018c5.536,10.644,11.289,21.179,17.148,31.656c0.377-0.002,0.632,0.042,0.572,0.125
	c-0.096,0.133-0.178,0.283-0.262,0.433c7.342,13.117,14.843,26.147,22.306,39.183c6.048,10.563,12.126,21.108,18.169,31.672
	c1.771,3.095,3.548,6.186,5.28,9.302c0.278,0.5,1.274,1.795,1.589,2.734c0.12-0.007,0.236-0.005,0.342,0.019
	c3.862,0.864,8.711,0.202,12.959-0.082C512.453,484.434,503.458,465.685,494.451,446.942z M484.94,388.202
	c-5.169-0.014-10.339-0.022-15.508-0.03c0.755,1.352,1.328,2.916,1.972,4.231c2.142,4.379,4.266,8.767,6.387,13.156
	c3.775,7.81,7.531,15.629,11.293,23.446C487.387,415.439,486.146,401.817,484.94,388.202z M541.68,386.85c0-4.708,0-9.417,0-14.126
	c-44.342,0.3-88.684,0.379-133.026,0.283c-0.806,0.467-2.508,0.587-2.484,0.28c0.007-0.094,0.015-0.188,0.022-0.283
	c-15.389-0.036-30.777-0.093-46.167-0.171c-1.464,0.327-2.892,0.769-4.268,1.366c3.803,3.417,6.53,7.795,8.628,12.549
	C423.482,386.455,482.582,386.453,541.68,386.85z M352.428,206.825c-3.332,0.461-3.208-3.527-2.527-5.695
	c0.308-0.977-2.594-0.573-2.893,0.378c-0.528,1.678-0.854,3.827,0.224,5.375c1.086,1.559,3.043,1.735,4.786,1.493
	c0.537-0.074,1.488-0.343,1.652-0.964C353.836,206.781,352.775,206.776,352.428,206.825z M361.626,210.09
	c-0.661,0.035-1.444,0.247-1.932,0.72c-0.49,0.476-1.108,1.144-1.838,1.164c-0.63,0.018-1.484,0.244-1.932,0.72
	c-0.466,0.497,0.403,0.59,0.713,0.582c2.2-0.061,4.149-1.096,5.701-2.604C362.832,210.192,361.913,210.075,361.626,210.09z
	 M365.279,197.989c-2.981-2.16-6.691-2.716-9.237,0.417c-1.153,1.419,1.611,1.784,2.41,0.801c0.547-0.672,0.972-1.088,1.859-0.989
	c0.991,0.111,1.944,0.842,2.724,1.406C364.035,200.348,366.601,198.946,365.279,197.989z M359.627,191.684
	c1.643,0,2.234-2.087,0.266-2.086c-2.497,0.001-4.604,0.279-6.743,1.653c-0.515,0.331-0.737,1.086-0.162,1.473
	c0.634,0.427,1.487,0.197,2.076-0.181C356.48,191.632,357.994,191.685,359.627,191.684z M167.729,220.544
	c-0.041,0.225-0.079,0.458-0.112,0.696c0.684-0.333,1.651-0.446,2.107-0.015c1.238,1.171,2.588,1.319,4.217,1.321
	c0.571,0,1.171,0.487,0.848,1.082c-0.086,0.157-0.201,0.283-0.333,0.39c0.188,0.047,0.3,0.133,0.183,0.294
	c-1.039,1.433-2.198,2.725-3.836,3.468c-1.051,0.477-2.6,0.912-3.742,0.488c-2.813-1.043-2.635-4.818-2.194-7.231
	C165.001,220.304,167.863,219.808,167.729,220.544z M167.494,222.818c-0.015,1.155,0.165,2.32,0.762,3.252
	c0.196,0.307,0.427,0.615,0.74,0.813c0.28,0.178,0.604,0.159,0.509,0.257c0.927-0.55,1.653-1.484,2.271-2.335
	c0.1-0.138,0.23-0.25,0.373-0.347C170.397,224.372,168.875,223.944,167.494,222.818z M436.074,161.538
	c-1.192-0.61-2.355-1.379-2.525-2.805c-0.148-1.254,1.058-2.494,1.836-3.309c0.494-0.519-0.42-0.774-0.765-0.774
	c-0.709-0.001-1.428,0.257-1.919,0.771c-1.098,1.149-2.068,2.439-2.05,4.089c0.019,1.651,1.833,2.724,3.101,3.374
	C434.539,163.285,437.216,162.123,436.074,161.538z M452.01,163.549c-0.12,2.979-2.059,5.372-5.144,5.682
	c-3.136,0.315-5.36-1.397-6.077-4.466c-0.089-0.382,0.482-0.743,1.141-0.945c0.275-0.504,1.146-0.682,1.626-0.781
	c2.589-0.535,5.025,0.263,7.606,0.218C451.309,163.254,452.021,163.246,452.01,163.549z M449.094,164.597
	c-1.781-0.107-3.573-0.55-5.34-0.366c0.412,1.551,1.398,3.458,3.171,3.673C448.431,168.086,448.984,165.86,449.094,164.597z
	 M447.146,152.919c-0.037,0.03,0.252-0.158,0.346-0.241c0.041,0,0.086,0.002,0.128,0.015c0.503,0.154,0.874,0.605,1.112,1.051
	c0.488,0.91,3.275-0.073,2.898-0.776c-1.412-2.63-4.77-2.012-6.775-0.406c-0.464,0.371-0.341,0.816,0.242,0.907
	C445.779,153.575,446.609,153.35,447.146,152.919z M443.721,146.793c-0.496,0.362-0.309,0.841,0.25,0.935
	c0.709,0.119,1.48-0.133,2.049-0.549c2.019-1.475,4.407,0.016,5.689,1.758c0.54,0.734,3.34-0.229,2.699-1.101
	C451.803,144.294,447.049,144.36,443.721,146.793z M189.203,139.702c-7.782-24.975,12.657-50.37,38.379-49.352
	c0.33,0.013,0.541,0.073,0.672,0.158c0.219-0.09,0.437-0.151,0.625-0.158c26.119-1.034,47.637,27.544,35.904,52.204
	c-3.562,7.485-9.29,11.848-15.432,17.081c-5.971,5.086-8.631,10.932-9.013,18.674c-0.184,3.724,0.21,9.204-3.022,11.888
	c-2.854,2.37-6.433,2.755-9.991,2.568c-4.08,0.269-8.513-0.142-10.735-3.91c-2.329-3.948-1.269-9.482-1.922-13.839
	c-1.281-8.55-6.551-13.125-12.898-18.296C196.178,152.163,191.389,146.714,189.203,139.702z M238.553,170.972
	c-7.209,0-14.42,0-21.63,0c0.029,0.116,0.063,0.229,0.091,0.347c0.982,4.263,0.602,8.6,1.302,12.878
	c0.021-0.001,0.045-0.005,0.065-0.005c3.908,0,7.816,0,11.725,0c1.957,0-0.107,1.575-1.145,1.575c-3.428,0-6.854,0-10.281,0
	c1.039,3.439,3.416,4.847,6.502,5.218c0.256-0.079,0.494-0.12,0.673-0.099c0.608,0.071,1.258,0.142,1.923,0.194
	c0.898-0.027,1.828-0.099,2.788-0.212c0.538-0.063,0.855,0.015,1.013,0.162c2.248-0.324,4.198-1.336,4.926-3.894
	c0.53-1.862,0.71-3.761,0.803-5.689c0.068-1.399,0.129-2.82,0.234-4.239c-0.271,0.452-1.26,1.018-1.881,1.018
	c-4.467,0-8.934,0-13.4,0c-1.956,0,0.113-1.569,1.146-1.569c4.467,0,8.934,0,13.4,0c0.443,0,0.672,0.083,0.761,0.208
	C237.727,174.867,238.002,172.882,238.553,170.972z M193.852,143.177c3.306,6.344,8.241,10.396,13.658,14.836
	c3.703,3.035,7.012,6.413,8.731,10.826c0.007,0,0.013-0.001,0.019-0.001c7.537,0,15.074,0,22.612,0c0.163,0,0.304,0.02,0.433,0.046
	c0.115-0.27,0.217-0.543,0.347-0.808c2.593-5.262,6.96-8.547,11.408-12.171c5.411-4.409,10.06-9.618,12.177-16.412
	c7.248-23.258-10.827-48.459-35.48-47.484c-0.344,0.014-0.561-0.03-0.686-0.108c-0.213,0.072-0.425,0.115-0.611,0.108
	C201.117,91.006,181.919,120.272,193.852,143.177z M156.916,125.396c5.024,0,10.05,0,15.075,0c0.943,0,3.132-1.431,1.184-1.431
	c-5.024,0-10.05,0-15.075,0C157.156,123.965,154.968,125.396,156.916,125.396z M175.124,146.193
	c-4.128,2.865-8.255,5.73-12.383,8.596c-1.282,0.891,1.644,0.742,2.277,0.302c4.127-2.866,8.255-5.731,12.383-8.596
	C178.684,145.605,175.758,145.753,175.124,146.193z M176.84,102.608c0.676,0.606,3.354-0.489,2.709-1.068
	c-3.74-3.355-7.481-6.709-11.222-10.064c-0.676-0.606-3.354,0.489-2.709,1.068C169.359,95.898,173.1,99.253,176.84,102.608z
	 M282.541,125.396c5.024,0,10.05,0,15.075,0c0.943,0,3.132-1.431,1.184-1.431c-5.024,0-10.05,0-15.075,0
	C282.781,123.965,280.593,125.396,282.541,125.396z M278.098,146.878c4.128,2.865,8.256,5.731,12.383,8.596
	c0.762,0.529,3.345-0.627,2.709-1.068c-4.128-2.866-8.256-5.731-12.383-8.596C280.045,145.281,277.462,146.437,278.098,146.878z
	 M278.659,102.225c3.74-3.355,7.481-6.71,11.223-10.064c1.194-1.071-1.684-0.834-2.277-0.302
	c-3.741,3.354-7.481,6.709-11.223,10.064C275.188,102.994,278.065,102.757,278.659,102.225z M80.646,464.315
	c-0.793-6.869-0.822-13.771-0.823-20.676c-0.001-1.461-2.928-0.973-2.928,0.252c0.002,7.08,0.04,14.159,0.853,21.2
	C77.894,466.348,80.8,465.647,80.646,464.315z M112.469,464.421c3.668,0,7.336,0,11.004,0c0.563,0,3.285-1.111,1.898-1.111
	c-4.188,0-8.375,0-12.563,0c-0.094,0-0.249,0.032-0.432,0.083c-0.317-3.002-0.5-6.01-0.6-9.022c3.898,0,7.797,0,11.695,0
	c0.563,0,3.285-1.111,1.898-1.111c-4.188,0-8.375,0-12.563,0c-0.188,0-0.619,0.125-1.057,0.292
	c-0.095-3.301-0.104-6.606-0.104-9.912c0-0.056-0.012-0.104-0.021-0.155c3.67,0,7.339,0,11.008,0c0.279,0,0.559,0,0.838,0
	c0.563,0,3.285-1.111,1.898-1.111c-0.279,0-0.559,0-0.838,0c-3.908,0-7.816,0-11.725,0c-0.279,0-0.559,0-0.838,0
	c-0.221,0-0.773,0.172-1.281,0.38c-0.854-0.091-1.97,0.382-1.97,1.139c0.002,7.08,0.04,14.159,0.853,21.2
	C109.714,466.314,112.459,465.682,112.469,464.421z M88.307,464.5c7.03,1.633,14.769-0.909,15.727-8.926
	c1.07-8.966-6.791-14.634-15.007-14.104c-0.803,0.052-3.156,1.365-1.234,1.241c6.487-0.419,11.665,3.348,13.138,9.671
	c0.563,2.419,0.271,4.958-0.687,7.23c-1.753,4.16-5.842,4.648-9.812,3.669c-0.283-0.07-0.869,0.072-1.408,0.279
	c0-6.654,0-13.31,0-19.964c0-1.276-2.904-0.676-2.904,0.337c0,6.7,0,13.4,0,20.1C86.119,464.896,87.446,464.9,88.307,464.5z
	 M129.253,464.253c-0.501-1.077,0.419-3.35,0.678-4.378c0.335-1.331,0.692-2.656,1.063-3.977c0.012-0.039,0.021-0.077,0.031-0.115
	c0.394-1.396,0.805-2.785,1.232-4.17c0.801-2.593,1.678-9.1,4.299-10.593c0.355-0.203,1.186-0.324,1.729-0.28
	c0.61-0.338,1.465-0.518,1.928-0.254c0.976,0.556,1.38,2.529,1.717,3.475c0.93,2.607,1.78,5.244,2.575,7.896
	c0.275,0.918,0.549,1.84,0.818,2.763c0.056,0,0.111,0,0.167,0c1.271,0,0.912,0.73,0.192,1.245c0.44,1.557,0.854,3.121,1.196,4.698
	c0.215,0.991,0.727,2.409,0.266,3.398c-0.465,1-3.382,1.203-2.732-0.191c0.408-0.877-0.699-3.6-0.926-4.471
	c-0.256-0.982-0.523-1.96-0.796-2.937c-3.114,0-6.229,0-9.345,0c-0.93,2.587-1.873,5.657-1.194,7.115
	C132.412,464.039,129.609,465.019,129.253,464.253z M133.986,454.62c2.734,0,5.469,0,8.203,0c-0.193-0.663-0.381-1.326-0.582-1.986
	c-0.739-2.428-1.491-4.856-2.344-7.247c-0.206-0.58-0.656-2.636-1.182-3.228c-0.314,0.991-0.949,2.78-1.123,3.29
	c-0.838,2.46-1.629,4.938-2.364,7.431C134.465,453.32,134.244,453.924,133.986,454.62z" fill="#0c2957"></path>
</svg>